# xmcd
#
# Track frame offsets:
#  150
#  15120
#  27746
#  43091
#  56684
#  74728
#  89647
#  108634
#  122937
#  138656
#  157625
#  175154
#
# Disc length: 2526 seconds
#
# Revision: 0
# Processed by: cddbd v1.5.2PL0 Copyright (c) Steve Scherf et al.
# Submitted via: Collectorz.com_Music_Collector 6.11
#
DISCID=aa09dc0c
DTITLE=Linita - Par Tevi un mani
DYEAR=2011
DGENRE=
TTITLE0=Par Tevi un mani
TTITLE1=Kas par to
TTITLE2=Meksika
TTITLE3=Nevar saprast
TTITLE4=Nejautā neko
TTITLE5=Vienīgi Tev
TTITLE6=Tikai vēl mazliet
TTITLE7=Bērnības tilts
TTITLE8=Saki, vai tu
TTITLE9=Klusi nemanāmi
TTITLE10=Steiga
TTITLE11=Neapsolīts rīts
EXTD=
EXTT0=
EXTT1=
EXTT2=
EXTT3=
EXTT4=
EXTT5=
EXTT6=
EXTT7=
EXTT8=
EXTT9=
EXTT10=
EXTT11=
PLAYORDER=
